<mxfile host="drawio-plugin" modified="2024-01-08T23:39:05.036Z" agent="5.0 (Windows NT 6.2; Win64; x64) AppleWebKit/537.36 (KHTML, like Gecko) Chrome/104.0.5112.102 Safari/537.36" etag="uuZw2-6DzgBWMdiuhjKu" version="20.5.3" type="embed"><diagram id="23iRSUPoRavnBvh4doch" name="Page-1"><mxGraphModel dx="2114" dy="878" grid="1" gridSize="10" guides="1" tooltips="1" connect="1" arrows="1" fold="1" page="1" pageScale="1" pageWidth="827" pageHeight="1169" math="0" shadow="0"><root><mxCell id="0"/><mxCell id="1" parent="0"/><mxCell id="2" style="edgeStyle=orthogonalEdgeStyle;rounded=0;orthogonalLoop=1;jettySize=auto;html=1;entryX=0.5;entryY=0;entryDx=0;entryDy=0;fontColor=#FFFFFF;" edge="1" parent="1" source="3" target="6"><mxGeometry relative="1" as="geometry"/></mxCell><mxCell id="3" value="&lt;font style=&quot;font-size: 20px;&quot;&gt;Початок&lt;/font&gt;" style="ellipse;whiteSpace=wrap;html=1;fontColor=#FFFFFF;" vertex="1" parent="1"><mxGeometry x="-110" y="10" width="230" height="100" as="geometry"/></mxCell><mxCell id="4" value="&lt;span style=&quot;font-size: 20px;&quot;&gt;Кінець&lt;/span&gt;" style="ellipse;whiteSpace=wrap;html=1;fontColor=#FFFFFF;" vertex="1" parent="1"><mxGeometry x="-610" y="270" width="230" height="100" as="geometry"/></mxCell><mxCell id="5" style="edgeStyle=orthogonalEdgeStyle;rounded=0;orthogonalLoop=1;jettySize=auto;html=1;entryX=0.5;entryY=0;entryDx=0;entryDy=0;fontColor=#FFFFFF;" edge="1" parent="1" source="6" target="9"><mxGeometry relative="1" as="geometry"/></mxCell><mxCell id="6" value="&lt;div style=&quot;background-color: rgb(43, 43, 43); font-family: &amp;quot;JetBrains Mono&amp;quot;, monospace;&quot;&gt;&lt;pre&gt;sortChoice(int[] arr)&lt;/pre&gt;&lt;/div&gt;" style="ellipse;whiteSpace=wrap;html=1;fontColor=#FFFFFF;" vertex="1" parent="1"><mxGeometry x="-110" y="140" width="230" height="100" as="geometry"/></mxCell><mxCell id="7" style="edgeStyle=orthogonalEdgeStyle;rounded=0;orthogonalLoop=1;jettySize=auto;html=1;entryX=0.5;entryY=0;entryDx=0;entryDy=0;fontColor=#FFFFFF;" edge="1" parent="1" source="9" target="12"><mxGeometry relative="1" as="geometry"/></mxCell><mxCell id="8" style="edgeStyle=orthogonalEdgeStyle;rounded=0;orthogonalLoop=1;jettySize=auto;html=1;entryX=1;entryY=0.5;entryDx=0;entryDy=0;fontColor=#FFFFFF;" edge="1" parent="1" source="9" target="18"><mxGeometry relative="1" as="geometry"/></mxCell><mxCell id="9" value="&lt;div style=&quot;background-color: rgb(43, 43, 43); font-family: &amp;quot;JetBrains Mono&amp;quot;, monospace;&quot;&gt;&lt;pre&gt;int i = &lt;span style=&quot;&quot;&gt;0&lt;/span&gt;&lt;span style=&quot;&quot;&gt;;&lt;/span&gt;arr.&lt;span style=&quot;&quot;&gt;length&lt;/span&gt;&lt;span style=&quot;&quot;&gt;;1&lt;/span&gt;&lt;/pre&gt;&lt;/div&gt;" style="shape=hexagon;perimeter=hexagonPerimeter2;whiteSpace=wrap;html=1;fixedSize=1;fontColor=#FFFFFF;" vertex="1" parent="1"><mxGeometry x="-101.25" y="270" width="212.5" height="100" as="geometry"/></mxCell><mxCell id="10" style="edgeStyle=orthogonalEdgeStyle;rounded=0;orthogonalLoop=1;jettySize=auto;html=1;entryX=0.5;entryY=0;entryDx=0;entryDy=0;fontColor=#FFFFFF;" edge="1" parent="1" source="12" target="14"><mxGeometry relative="1" as="geometry"/></mxCell><mxCell id="11" style="edgeStyle=orthogonalEdgeStyle;rounded=0;orthogonalLoop=1;jettySize=auto;html=1;entryX=1;entryY=0.5;entryDx=0;entryDy=0;exitX=1;exitY=0.5;exitDx=0;exitDy=0;fontColor=#FFFFFF;" edge="1" parent="1" source="12" target="9"><mxGeometry relative="1" as="geometry"><Array as="points"><mxPoint x="190" y="450"/><mxPoint x="190" y="320"/></Array></mxGeometry></mxCell><mxCell id="12" value="&lt;div style=&quot;background-color: rgb(43, 43, 43); font-family: &amp;quot;JetBrains Mono&amp;quot;, monospace;&quot;&gt;&lt;pre&gt;&lt;div style=&quot;font-family: &amp;quot;JetBrains Mono&amp;quot;, monospace;&quot;&gt;&lt;pre&gt;int k = i + &lt;span style=&quot;&quot;&gt;1&lt;/span&gt;&lt;span style=&quot;&quot;&gt;;&lt;/span&gt;arr.&lt;span style=&quot;&quot;&gt;length&lt;/span&gt;&lt;span style=&quot;&quot;&gt;;1&lt;/span&gt;&lt;/pre&gt;&lt;/div&gt;&lt;/pre&gt;&lt;/div&gt;" style="shape=hexagon;perimeter=hexagonPerimeter2;whiteSpace=wrap;html=1;fixedSize=1;fontColor=#FFFFFF;" vertex="1" parent="1"><mxGeometry x="-101.25" y="400" width="212.5" height="100" as="geometry"/></mxCell><mxCell id="13" style="edgeStyle=orthogonalEdgeStyle;rounded=0;orthogonalLoop=1;jettySize=auto;html=1;entryX=0.5;entryY=0;entryDx=0;entryDy=0;fontColor=#FFFFFF;" edge="1" parent="1" source="14" target="16"><mxGeometry relative="1" as="geometry"/></mxCell><mxCell id="14" value="&lt;div style=&quot;background-color: rgb(43, 43, 43); font-family: &amp;quot;JetBrains Mono&amp;quot;, monospace;&quot;&gt;&lt;pre&gt;arr[k] &amp;lt; arr[i]&lt;/pre&gt;&lt;/div&gt;" style="rhombus;whiteSpace=wrap;html=1;fontColor=#FFFFFF;" vertex="1" parent="1"><mxGeometry x="-65" y="540" width="140" height="90" as="geometry"/></mxCell><mxCell id="15" style="edgeStyle=orthogonalEdgeStyle;rounded=0;orthogonalLoop=1;jettySize=auto;html=1;entryX=1;entryY=0.75;entryDx=0;entryDy=0;exitX=1;exitY=0.5;exitDx=0;exitDy=0;fontColor=#FFFFFF;" edge="1" parent="1" source="16" target="12"><mxGeometry relative="1" as="geometry"><Array as="points"><mxPoint x="180" y="700"/><mxPoint x="180" y="473"/></Array></mxGeometry></mxCell><mxCell id="16" value="&lt;div style=&quot;background-color: rgb(43, 43, 43); font-family: &amp;quot;JetBrains Mono&amp;quot;, monospace;&quot;&gt;&lt;pre&gt;int num = arr[i]&lt;span style=&quot;&quot;&gt;;&lt;br&gt;&lt;/span&gt;arr[i] = arr[k]&lt;span style=&quot;&quot;&gt;;&lt;br&gt;&lt;/span&gt;arr[k] = num&lt;span style=&quot;&quot;&gt;;&lt;/span&gt;&lt;/pre&gt;&lt;/div&gt;" style="whiteSpace=wrap;html=1;fontColor=#FFFFFF;" vertex="1" parent="1"><mxGeometry x="-80" y="660" width="170" height="80" as="geometry"/></mxCell><mxCell id="17" style="edgeStyle=orthogonalEdgeStyle;rounded=0;orthogonalLoop=1;jettySize=auto;html=1;entryX=1;entryY=0.5;entryDx=0;entryDy=0;fontColor=#FFFFFF;" edge="1" parent="1" source="18" target="4"><mxGeometry relative="1" as="geometry"/></mxCell><mxCell id="18" value="return arr;" style="rounded=0;whiteSpace=wrap;html=1;fontColor=#FFFFFF;" vertex="1" parent="1"><mxGeometry x="-340" y="290" width="120" height="60" as="geometry"/></mxCell><mxCell id="19" value="Так" style="text;html=1;align=center;verticalAlign=middle;resizable=0;points=[];autosize=1;strokeColor=none;fillColor=none;fontColor=#FFFFFF;" vertex="1" parent="1"><mxGeometry x="10" y="620" width="40" height="30" as="geometry"/></mxCell><mxCell id="20" value="так" style="text;html=1;align=center;verticalAlign=middle;resizable=0;points=[];autosize=1;strokeColor=none;fillColor=none;fontColor=#FFFFFF;" vertex="1" parent="1"><mxGeometry x="10" y="500" width="40" height="30" as="geometry"/></mxCell><mxCell id="21" value="так" style="text;html=1;align=center;verticalAlign=middle;resizable=0;points=[];autosize=1;strokeColor=none;fillColor=none;fontColor=#FFFFFF;" vertex="1" parent="1"><mxGeometry x="10" y="370" width="40" height="30" as="geometry"/></mxCell><mxCell id="22" value="Ні" style="text;html=1;align=center;verticalAlign=middle;resizable=0;points=[];autosize=1;strokeColor=none;fillColor=none;fontColor=#FFFFFF;" vertex="1" parent="1"><mxGeometry x="110" y="420" width="30" height="30" as="geometry"/></mxCell><mxCell id="23" value="Ні" style="text;html=1;align=center;verticalAlign=middle;resizable=0;points=[];autosize=1;strokeColor=none;fillColor=none;fontColor=#FFFFFF;" vertex="1" parent="1"><mxGeometry x="-130" y="290" width="30" height="30" as="geometry"/></mxCell><mxCell id="24" value="В кращому випадку - O (n^2)&lt;br&gt;В середньому випадку - O (n^2)&lt;br&gt;В гіршому випадку - O (n^2)" style="text;html=1;align=center;verticalAlign=middle;resizable=0;points=[];autosize=1;strokeColor=none;fillColor=none;fontColor=#FFFFFF;" vertex="1" parent="1"><mxGeometry x="180" y="53" width="200" height="60" as="geometry"/></mxCell></root></mxGraphModel></diagram></mxfile>